<svg xmlns="http://www.w3.org/2000/svg" viewBox="0 0 40 40" shape-rendering="crispEdges">
  <rect x="10" y="6" width="8" height="1" fill="#5ba453"/>
  <rect x="9" y="7" width="10" height="1" fill="#5ba453"/>
  <rect x="7" y="8" width="15" height="1" fill="#5ba453"/>
  <rect x="4" y="9" width="20" height="1" fill="#5ba453"/>
  <rect x="4" y="10" width="21" height="1" fill="#5ba453"/>
  <rect x="2" y="11" width="25" height="1" fill="#5ba453"/>
  <rect x="1" y="12" width="26" height="1" fill="#5ba453"/>
  <rect x="0" y="13" width="29" height="1" fill="#5ba453"/>
  <rect x="0" y="14" width="29" height="1" fill="#5ba453"/>
  <rect x="0" y="15" width="29" height="1" fill="#5ba453"/>
  <rect x="0" y="16" width="3" height="1" fill="#013560"/>
  <rect x="3" y="16" width="8" height="1" fill="#5ba453"/>
  <rect x="11" y="16" width="2" height="1" fill="#013560"/>
  <rect x="13" y="16" width="3" height="1" fill="#5ba453"/>
  <rect x="16" y="16" width="2" height="1" fill="#013560"/>
  <rect x="18" y="16" width="2" height="1" fill="#5ba453"/>
  <rect x="20" y="16" width="2" height="1" fill="#013560"/>
  <rect x="23" y="16" width="2" height="1" fill="#5ba453"/>
  <rect x="0" y="17" width="3" height="1" fill="#013560"/>
  <rect x="3" y="17" width="8" height="1" fill="#5ba453"/>
  <rect x="11" y="17" width="2" height="1" fill="#013560"/>
  <rect x="13" y="17" width="3" height="1" fill="#5ba453"/>
  <rect x="16" y="17" width="2" height="1" fill="#013560"/>
  <rect x="18" y="17" width="2" height="1" fill="#5ba453"/>
  <rect x="20" y="17" width="1" height="1" fill="#013560"/>
  <rect x="2" y="18" width="4" height="1" fill="#013560"/>
  <rect x="6" y="18" width="1" height="1" fill="#5ba453"/>
  <rect x="7" y="18" width="13" height="1" fill="#013560"/>
  <rect x="4" y="19" width="8" height="1" fill="#013560"/>
  <rect x="12" y="19" width="1" height="1" fill="#c67839"/>
  <rect x="13" y="19" width="3" height="1" fill="#013560"/>
  <rect x="4" y="20" width="5" height="1" fill="#013560"/>
  <rect x="9" y="20" width="1" height="1" fill="#6e8746"/>
  <rect x="10" y="20" width="2" height="1" fill="#013560"/>
  <rect x="12" y="20" width="2" height="1" fill="#c67839"/>
  <rect x="14" y="20" width="1" height="1" fill="#013560"/>
  <rect x="7" y="21" width="2" height="1" fill="#013560"/>
  <rect x="9" y="21" width="1" height="1" fill="#6e8746"/>
  <rect x="10" y="21" width="2" height="1" fill="#c67839"/>
  <rect x="12" y="21" width="2" height="1" fill="#013560"/>
  <rect x="28" y="21" width="4" height="1" fill="#013560"/>
  <rect x="7" y="22" width="2" height="1" fill="#013560"/>
  <rect x="9" y="22" width="2" height="1" fill="#c67839"/>
  <rect x="11" y="22" width="2" height="1" fill="#013560"/>
  <rect x="28" y="22" width="5" height="1" fill="#013560"/>
  <rect x="7" y="23" width="2" height="1" fill="#013560"/>
  <rect x="9" y="23" width="2" height="1" fill="#c67839"/>
  <rect x="11" y="23" width="1" height="1" fill="#013560"/>
  <rect x="23" y="23" width="4" height="1" fill="#013560"/>
  <rect x="28" y="23" width="1" height="1" fill="#013560"/>
  <rect x="29" y="23" width="2" height="1" fill="#fece90"/>
  <rect x="31" y="23" width="2" height="1" fill="#013560"/>
  <rect x="34" y="23" width="2" height="1" fill="#013560"/>
  <rect x="7" y="24" width="2" height="1" fill="#013560"/>
  <rect x="9" y="24" width="2" height="1" fill="#c67839"/>
  <rect x="11" y="24" width="1" height="1" fill="#013560"/>
  <rect x="23" y="24" width="2" height="1" fill="#013560"/>
  <rect x="29" y="24" width="3" height="1" fill="#013560"/>
  <rect x="33" y="24" width="1" height="1" fill="#013560"/>
  <rect x="34" y="24" width="1" height="1" fill="#16c4ed"/>
  <rect x="35" y="24" width="1" height="1" fill="#013560"/>
  <rect x="7" y="25" width="2" height="1" fill="#013560"/>
  <rect x="9" y="25" width="2" height="1" fill="#c67839"/>
  <rect x="11" y="25" width="1" height="1" fill="#013560"/>
  <rect x="23" y="25" width="2" height="1" fill="#013560"/>
  <rect x="27" y="25" width="2" height="1" fill="#013560"/>
  <rect x="32" y="25" width="2" height="1" fill="#013560"/>
  <rect x="34" y="25" width="1" height="1" fill="#16c4ed"/>
  <rect x="35" y="25" width="1" height="1" fill="#013560"/>
  <rect x="7" y="26" width="2" height="1" fill="#013560"/>
  <rect x="9" y="26" width="2" height="1" fill="#c67839"/>
  <rect x="11" y="26" width="1" height="1" fill="#013560"/>
  <rect x="20" y="26" width="2" height="1" fill="#013560"/>
  <rect x="24" y="26" width="2" height="1" fill="#013560"/>
  <rect x="26" y="26" width="2" height="1" fill="#fece90"/>
  <rect x="28" y="26" width="1" height="1" fill="#013560"/>
  <rect x="29" y="26" width="1" height="1" fill="#fece90"/>
  <rect x="32" y="26" width="3" height="1" fill="#013560"/>
  <rect x="7" y="27" width="2" height="1" fill="#013560"/>
  <rect x="9" y="27" width="2" height="1" fill="#c67839"/>
  <rect x="11" y="27" width="1" height="1" fill="#013560"/>
  <rect x="19" y="27" width="1" height="1" fill="#013560"/>
  <rect x="20" y="27" width="2" height="1" fill="#fece90"/>
  <rect x="22" y="27" width="5" height="1" fill="#013560"/>
  <rect x="27" y="27" width="3" height="1" fill="#fece90"/>
  <rect x="31" y="27" width="3" height="1" fill="#013560"/>
  <rect x="7" y="28" width="2" height="1" fill="#013560"/>
  <rect x="9" y="28" width="1" height="1" fill="#6e8746"/>
  <rect x="10" y="28" width="2" height="1" fill="#013560"/>
  <rect x="19" y="28" width="1" height="1" fill="#013560"/>
  <rect x="20" y="28" width="2" height="1" fill="#fece90"/>
  <rect x="22" y="28" width="3" height="1" fill="#013560"/>
  <rect x="25" y="28" width="1" height="1" fill="#5ba453"/>
  <rect x="26" y="28" width="5" height="1" fill="#013560"/>
  <rect x="31" y="28" width="1" height="1" fill="#16c4ed"/>
  <rect x="32" y="28" width="1" height="1" fill="#013560"/>
  <rect x="6" y="29" width="3" height="1" fill="#013560"/>
  <rect x="9" y="29" width="2" height="1" fill="#c67839"/>
  <rect x="11" y="29" width="1" height="1" fill="#013560"/>
  <rect x="17" y="29" width="2" height="1" fill="#013560"/>
  <rect x="19" y="29" width="1" height="1" fill="#fece90"/>
  <rect x="20" y="29" width="1" height="1" fill="#c1b174"/>
  <rect x="21" y="29" width="2" height="1" fill="#013560"/>
  <rect x="23" y="29" width="8" height="1" fill="#16c4ed"/>
  <rect x="31" y="29" width="2" height="1" fill="#013560"/>
  <rect x="6" y="30" width="3" height="1" fill="#013560"/>
  <rect x="9" y="30" width="3" height="1" fill="#c67839"/>
  <rect x="12" y="30" width="1" height="1" fill="#013560"/>
  <rect x="16" y="30" width="1" height="1" fill="#013560"/>
  <rect x="17" y="30" width="3" height="1" fill="#fece90"/>
  <rect x="20" y="30" width="12" height="1" fill="#013560"/>
  <rect x="37" y="30" width="1" height="1" fill="#5ba453"/>
  <rect x="4" y="31" width="4" height="1" fill="#013560"/>
  <rect x="8" y="31" width="1" height="1" fill="#c67839"/>
  <rect x="9" y="31" width="2" height="1" fill="#013560"/>
  <rect x="11" y="31" width="1" height="1" fill="#c67839"/>
  <rect x="12" y="31" width="2" height="1" fill="#013560"/>
  <rect x="15" y="31" width="2" height="1" fill="#013560"/>
  <rect x="17" y="31" width="3" height="1" fill="#fece90"/>
  <rect x="20" y="31" width="1" height="1" fill="#013560"/>
  <rect x="23" y="31" width="1" height="1" fill="#013560"/>
  <rect x="31" y="31" width="3" height="1" fill="#013560"/>
  <rect x="35" y="31" width="1" height="1" fill="#5ba453"/>
  <rect x="37" y="31" width="3" height="1" fill="#5ba453"/>
  <rect x="2" y="32" width="2" height="1" fill="#5ba453"/>
  <rect x="4" y="32" width="2" height="1" fill="#013560"/>
  <rect x="6" y="32" width="3" height="1" fill="#5ba453"/>
  <rect x="9" y="32" width="3" height="1" fill="#013560"/>
  <rect x="12" y="32" width="3" height="1" fill="#5ba453"/>
  <rect x="15" y="32" width="6" height="1" fill="#013560"/>
  <rect x="21" y="32" width="1" height="1" fill="#5ba453"/>
  <rect x="22" y="32" width="2" height="1" fill="#013560"/>
  <rect x="24" y="32" width="8" height="1" fill="#5ba453"/>
  <rect x="32" y="32" width="2" height="1" fill="#013560"/>
  <rect x="34" y="32" width="2" height="1" fill="#5ba453"/>
  <rect x="36" y="32" width="1" height="1" fill="#013560"/>
  <rect x="37" y="32" width="3" height="1" fill="#5ba453"/>
</svg>
